<svg width="48" height="48" viewBox="0 0 48 48" fill="none" xmlns="http://www.w3.org/2000/svg">
<path d="M24 28.8423C23.8 28.8423 23.6231 28.809 23.4693 28.7423C23.3154 28.6757 23.1679 28.5718 23.0269 28.4308L13.9346 19.3385C13.7885 19.1923 13.709 19.0154 13.6962 18.8077C13.6833 18.6 13.7628 18.4103 13.9346 18.2385C14.1064 18.0667 14.2917 17.9808 14.4904 17.9808C14.6891 17.9808 14.8744 18.0667 15.0462 18.2385L24 27.1923L32.9539 18.2385C33.1 18.0923 33.2769 18.0129 33.4846 18C33.6923 17.9872 33.8821 18.0667 34.0539 18.2385C34.2257 18.4103 34.3116 18.5955 34.3116 18.7943C34.3116 18.993 34.2257 19.1782 34.0539 19.35L24.9731 28.4308C24.8321 28.5718 24.6846 28.6757 24.5308 28.7423C24.3769 28.809 24.2 28.8423 24 28.8423Z" fill="black"/>
</svg>
