<svg width="48" height="48" viewBox="0 0 48 48" fill="none" xmlns="http://www.w3.org/2000/svg">
<path d="M13.7 25.5L25.05 36.85C25.35 37.15 25.5 37.5 25.5 37.9C25.5 38.3 25.35 38.65 25.05 38.95C24.75 39.25 24.4 39.4 24 39.4C23.6 39.4 23.25 39.25 22.95 38.95L9.04998 25.05C8.88331 24.8833 8.76664 24.7167 8.69998 24.55C8.63331 24.3833 8.59998 24.2 8.59998 24C8.59998 23.8 8.63331 23.6167 8.69998 23.45C8.76664 23.2833 8.88331 23.1167 9.04998 22.95L22.95 9.05001C23.25 8.75001 23.6 8.60001 24 8.60001C24.4 8.60001 24.75 8.75001 25.05 9.05001C25.35 9.35001 25.5 9.70001 25.5 10.1C25.5 10.5 25.35 10.85 25.05 11.15L13.7 22.5H38.5C38.9333 22.5 39.2916 22.6417 39.575 22.925C39.8583 23.2083 40 23.5667 40 24C40 24.4333 39.8583 24.7917 39.575 25.075C39.2916 25.3583 38.9333 25.5 38.5 25.5H13.7Z" fill="black"/>
</svg>
