<svg width="48" height="48" viewBox="0 0 48 48" fill="none" xmlns="http://www.w3.org/2000/svg">
<path d="M9 16.5H39V10H9V16.5ZM9 44C8.2 44 7.5 43.7 6.9 43.1C6.3 42.5 6 41.8 6 41V10C6 9.2 6.3 8.5 6.9 7.9C7.5 7.3 8.2 7 9 7H12.25V5.6C12.25 5.14667 12.408 4.76667 12.7241 4.46C13.0402 4.15333 13.4319 4 13.8991 4C14.3664 4 14.75 4.15333 15.05 4.46C15.35 4.76667 15.5 5.14667 15.5 5.6V7H32.5V5.6C32.5 5.14667 32.658 4.76667 32.9741 4.46C33.2902 4.15333 33.6819 4 34.1491 4C34.6164 4 35 4.15333 35.3 4.46C35.6 4.76667 35.75 5.14667 35.75 5.6V7H39C39.8 7 40.5 7.3 41.1 7.9C41.7 8.5 42 9.2 42 10V25.35C41.5277 25.1071 41.0429 24.9048 40.5457 24.7428C40.0486 24.5809 39.5333 24.45 39 24.35V19.5H9V41H24.95C25.15 41.5667 25.3833 42.0917 25.65 42.575C25.9167 43.0583 26.2333 43.5333 26.6 44H9ZM36.55 46C33.9355 46 31.7069 45.0786 29.8641 43.2359C28.0214 41.3931 27.1 39.1645 27.1 36.55C27.1 33.9355 28.0214 31.7069 29.8641 29.8641C31.7069 28.0214 33.9355 27.1 36.55 27.1C39.1645 27.1 41.3931 28.0214 43.2359 29.8641C45.0786 31.7069 46 33.9355 46 36.55C46 39.1645 45.0786 41.3931 43.2359 43.2359C41.3931 45.0786 39.1645 46 36.55 46ZM37.1 36.45V31.804C37.1 31.5347 37.005 31.3083 36.815 31.125C36.625 30.9417 36.4033 30.85 36.15 30.85C35.8833 30.85 35.65 30.945 35.45 31.135C35.25 31.325 35.15 31.5467 35.15 31.8V36.55C35.15 36.7355 35.1833 36.9152 35.25 37.0892C35.3167 37.2631 35.4167 37.4333 35.55 37.6L38.75 40.9C38.95 41.1 39.1833 41.2 39.45 41.2C39.7167 41.2 39.95 41.1 40.15 40.9C40.35 40.7 40.45 40.4667 40.45 40.2C40.45 39.9333 40.35 39.7 40.15 39.5L37.1 36.45Z" fill="black"/>
</svg>
