<svg width="28" height="28" viewBox="0 0 28 28" fill="none" xmlns="http://www.w3.org/2000/svg">
<path d="M14 16.1L3.49995 26.6C3.19995 26.9 2.84995 27.05 2.44995 27.05C2.04995 27.05 1.69995 26.9 1.39995 26.6C1.09995 26.3 0.949951 25.95 0.949951 25.55C0.949951 25.15 1.09995 24.8 1.39995 24.5L11.9 14L1.39995 3.50001C1.09995 3.20001 0.949951 2.85001 0.949951 2.45001C0.949951 2.05001 1.09995 1.70001 1.39995 1.40001C1.69995 1.10001 2.04995 0.950012 2.44995 0.950012C2.84995 0.950012 3.19995 1.10001 3.49995 1.40001L14 11.9L24.5 1.40001C24.8 1.10001 25.15 0.950012 25.55 0.950012C25.95 0.950012 26.3 1.10001 26.6 1.40001C26.9 1.70001 27.05 2.05001 27.05 2.45001C27.05 2.85001 26.9 3.20001 26.6 3.50001L16.1 14L26.6 24.5C26.9 24.8 27.05 25.15 27.05 25.55C27.05 25.95 26.9 26.3 26.6 26.6C26.3 26.9 25.95 27.05 25.55 27.05C25.15 27.05 24.8 26.9 24.5 26.6L14 16.1Z" fill="black"/>
</svg>
