<svg width="48" height="48" viewBox="0 0 48 48" fill="none" xmlns="http://www.w3.org/2000/svg">
<path d="M9 42C8.2 42 7.5 41.7 6.9 41.1C6.3 40.5 6 39.8 6 39V8.99999C6 8.19999 6.3 7.49999 6.9 6.89999C7.5 6.29999 8.2 5.99999 9 5.99999H29.25L26.25 8.99999H9V39H39V21.6L42 18.6V39C42 39.8 41.7 40.5 41.1 41.1C40.5 41.7 39.8 42 39 42H9ZM18 28.5V22.75C18 22.3352 18.0833 21.9398 18.25 21.5639C18.4167 21.188 18.6333 20.8667 18.9 20.6L37.1 2.39999C37.4 2.09999 37.7333 1.88332 38.1 1.74999C38.4667 1.61665 38.8333 1.54999 39.2 1.54999C39.5667 1.54999 39.9386 1.62499 40.3159 1.77499C40.6931 1.92499 41.0378 2.14999 41.35 2.44999L45.5 6.64999C45.787 6.94859 46.0087 7.27829 46.1652 7.63909C46.3217 7.99989 46.4 8.3669 46.4 8.74014C46.4 9.11337 46.325 9.49165 46.175 9.87499C46.025 10.2583 45.8 10.6 45.5 10.9L27.4 29.1C27.1333 29.3667 26.812 29.5833 26.4361 29.75C26.0602 29.9167 25.6648 30 25.25 30H19.5C19.075 30 18.7188 29.8562 18.4313 29.5687C18.1438 29.2812 18 28.925 18 28.5ZM21 27H25.25L37.9 14.35L35.75 12.25L33.6 10.15L21 22.7V27Z" fill="black"/>
</svg>
