<svg width="48" height="48" viewBox="0 0 48 48" fill="none" xmlns="http://www.w3.org/2000/svg">
<path d="M7 42C6.175 42 5.46875 41.7062 4.88125 41.1187C4.29375 40.5312 4 39.825 4 39V6.89999C4 6.72499 4.075 6.60624 4.225 6.54374C4.375 6.48124 4.51667 6.51665 4.65 6.64999L6.8 8.79999C6.95453 8.96665 7.13483 9.04999 7.3409 9.04999C7.54697 9.04999 7.73333 8.96665 7.9 8.79999L10.1 6.54999C10.2545 6.38332 10.4348 6.29999 10.6409 6.29999C10.847 6.29999 11.0333 6.38332 11.2 6.54999L13.45 8.79999C13.6045 8.96665 13.7848 9.04999 13.9909 9.04999C14.197 9.04999 14.3833 8.96665 14.55 8.79999L16.8 6.54999C16.9545 6.38332 17.1348 6.29999 17.3409 6.29999C17.547 6.29999 17.7333 6.38332 17.9 6.54999L20.1 8.79999C20.2545 8.96665 20.4348 9.04999 20.6409 9.04999C20.847 9.04999 21.0333 8.96665 21.2 8.79999L23.45 6.54999C23.6045 6.38332 23.7848 6.29999 23.9909 6.29999C24.197 6.29999 24.3833 6.38332 24.55 6.54999L26.8 8.79999C26.9545 8.96665 27.1348 9.04999 27.3409 9.04999C27.547 9.04999 27.7333 8.96665 27.9 8.79999L30.1 6.54999C30.2545 6.38332 30.4348 6.29999 30.6409 6.29999C30.847 6.29999 31.0333 6.38332 31.2 6.54999L33.45 8.79999C33.6045 8.96665 33.7848 9.04999 33.9909 9.04999C34.197 9.04999 34.3833 8.96665 34.55 8.79999L36.8 6.54999C36.9545 6.38332 37.1348 6.29999 37.3409 6.29999C37.547 6.29999 37.7333 6.38332 37.9 6.54999L40.1 8.79999C40.2545 8.96665 40.4348 9.04999 40.6409 9.04999C40.847 9.04999 41.0333 8.96665 41.2 8.79999L43.35 6.64999C43.4833 6.51665 43.625 6.48124 43.775 6.54374C43.925 6.60624 44 6.72499 44 6.89999V39C44 39.825 43.7062 40.5312 43.1188 41.1187C42.5312 41.7062 41.825 42 41 42H7ZM7 39H22.5V25H7V39ZM25.5 39H41V33.5H25.5V39ZM25.5 30.5H41V25H25.5V30.5ZM7 22H41V16H7V22Z" fill="black"/>
</svg>
