<svg width="48" height="48" viewBox="0 0 48 48" fill="none" xmlns="http://www.w3.org/2000/svg">
<path d="M9.5 38C9.06667 38 8.70833 37.8583 8.425 37.575C8.14167 37.2917 8 36.9333 8 36.5C8 36.0667 8.14167 35.7083 8.425 35.425C8.70833 35.1417 9.06667 35 9.5 35H12V19.8C12 17 12.825 14.4917 14.475 12.275C16.125 10.0583 18.3 8.66667 21 8.1V7C21 6.16667 21.2917 5.45833 21.875 4.875C22.4583 4.29167 23.1667 4 24 4C24.8333 4 25.5417 4.29167 26.125 4.875C26.7083 5.45833 27 6.16667 27 7V8.1C29.7 8.66667 31.875 10.0583 33.525 12.275C35.175 14.4917 36 17 36 19.8V35H38.5C38.9333 35 39.2917 35.1417 39.575 35.425C39.8583 35.7083 40 36.0667 40 36.5C40 36.9333 39.8583 37.2917 39.575 37.575C39.2917 37.8583 38.9333 38 38.5 38H9.5ZM24 44C22.9 44 21.9583 43.6083 21.175 42.825C20.3917 42.0417 20 41.1 20 40H28C28 41.1 27.6083 42.0417 26.825 42.825C26.0417 43.6083 25.1 44 24 44Z" fill="black"/>
</svg>
