<svg width="48" height="48" viewBox="0 0 48 48" fill="none" xmlns="http://www.w3.org/2000/svg">
<path d="M24 23.95C21.8 23.95 20 23.25 18.6 21.85C17.2 20.45 16.5 18.65 16.5 16.45C16.5 14.25 17.2 12.45 18.6 11.05C20 9.65001 21.8 8.95001 24 8.95001C26.2 8.95001 28 9.65001 29.4 11.05C30.8 12.45 31.5 14.25 31.5 16.45C31.5 18.65 30.8 20.45 29.4 21.85C28 23.25 26.2 23.95 24 23.95ZM8 37V35.3C8 34.0333 8.31667 32.95 8.95 32.05C9.58333 31.15 10.4 30.4667 11.4 30C13.6333 29 15.775 28.25 17.825 27.75C19.875 27.25 21.9333 27 24 27C26.0667 27 28.1167 27.2583 30.15 27.775C32.1833 28.2917 34.3167 29.0333 36.55 30C37.5833 30.4667 38.4167 31.15 39.05 32.05C39.6833 32.95 40 34.0333 40 35.3V37C40 37.8333 39.7083 38.5417 39.125 39.125C38.5417 39.7083 37.8333 40 37 40H11C10.1667 40 9.45833 39.7083 8.875 39.125C8.29167 38.5417 8 37.8333 8 37Z" fill="black"/>
</svg>
