<svg width="48" height="48" viewBox="0 0 48 48" fill="none" xmlns="http://www.w3.org/2000/svg">
<path d="M11.1478 35.1185C13.2398 33.7931 15.3068 32.7947 17.3488 32.1233C19.3909 31.452 21.6079 31.1163 24 31.1163C26.392 31.1163 28.6213 31.456 30.688 32.1353C32.7547 32.8147 34.826 33.8091 36.9021 35.1185C38.3528 33.3105 39.3805 31.5079 39.9852 29.7108C40.59 27.9137 40.8924 26.0101 40.8924 24C40.8924 19.2046 39.276 15.1903 36.0433 11.9572C32.8107 8.72412 28.7969 7.10759 24.0021 7.10759C19.2072 7.10759 15.1927 8.72412 11.9586 11.9572C8.72458 15.1903 7.10755 19.2046 7.10755 24C7.10755 26.0094 7.41635 27.9117 8.03395 29.7069C8.65158 31.5021 9.68953 33.306 11.1478 35.1185ZM23.9907 25.5837C22.0383 25.5837 20.3982 24.9163 19.0702 23.5814C17.7422 22.2466 17.0782 20.6057 17.0782 18.6586C17.0782 16.7116 17.7453 15.0717 19.0795 13.7391C20.4137 12.4065 22.0569 11.7402 24.0093 11.7402C25.9615 11.7402 27.6017 12.4096 28.9297 13.7484C30.2577 15.0872 30.9217 16.7302 30.9217 18.6772C30.9217 20.6243 30.2546 22.2621 28.9204 23.5907C27.5862 24.9194 25.9429 25.5837 23.9907 25.5837ZM23.9797 44.2989C21.1763 44.2989 18.5373 43.7668 16.0629 42.7026C13.5884 41.6384 11.4338 40.1829 9.5989 38.3362C7.764 36.4895 6.3223 34.3348 5.2738 31.8722C4.2253 29.4096 3.70105 26.7777 3.70105 23.9763C3.70105 21.175 4.23402 18.5423 5.29995 16.0784C6.36588 13.6145 7.82113 11.4686 9.6657 9.64074C11.5103 7.81284 13.6641 6.36392 16.1272 5.29399C18.5904 4.22405 21.223 3.68909 24.025 3.68909C26.8269 3.68909 29.4595 4.22405 31.9227 5.29399C34.3858 6.36392 36.5313 7.81284 38.3592 9.64074C40.1871 11.4686 41.636 13.6168 42.706 16.0853C43.7759 18.5537 44.3109 21.1875 44.3109 23.9867C44.3109 26.7859 43.7759 29.4158 42.706 31.8764C41.636 34.3371 40.1871 36.4897 38.3592 38.3342C36.5313 40.1788 34.381 41.6341 31.9082 42.7C29.4355 43.7659 26.7926 44.2989 23.9797 44.2989Z" fill="black"/>
</svg>
