<svg width="48" height="48" viewBox="0 0 48 48" fill="none" xmlns="http://www.w3.org/2000/svg">
<path d="M11.1478 35.1185C13.2398 33.6678 15.3151 32.5547 17.3738 31.7793C19.4325 31.004 21.643 30.6163 24.0051 30.6163C26.3673 30.6163 28.588 31.007 30.6672 31.7885C32.7464 32.57 34.8247 33.68 36.9021 35.1185C38.3528 33.3105 39.3805 31.5079 39.9852 29.7108C40.59 27.9137 40.8924 26.0101 40.8924 24C40.8924 19.2046 39.276 15.1903 36.0433 11.9572C32.8107 8.72412 28.7969 7.10759 24.0021 7.10759C19.2072 7.10759 15.1927 8.72412 11.9586 11.9572C8.72458 15.1903 7.10755 19.2046 7.10755 24C7.10755 26.0094 7.41635 27.9117 8.03395 29.7069C8.65158 31.5021 9.68953 33.306 11.1478 35.1185ZM23.9907 25.5837C22.0383 25.5837 20.3982 24.9163 19.0702 23.5814C17.7422 22.2466 17.0782 20.6057 17.0782 18.6586C17.0782 16.7116 17.7453 15.0717 19.0795 13.7391C20.4137 12.4065 22.0569 11.7402 24.0093 11.7402C25.9615 11.7402 27.6017 12.4096 28.9297 13.7484C30.2577 15.0872 30.9217 16.7302 30.9217 18.6772C30.9217 20.6243 30.2546 22.2621 28.9204 23.5907C27.5862 24.9194 25.9429 25.5837 23.9907 25.5837ZM24.0163 44.2989C21.2322 44.2989 18.606 43.7668 16.1377 42.7025C13.6694 41.6382 11.5117 40.1827 9.6647 38.3358C7.8177 36.489 6.362 34.3351 5.2976 31.8741C4.23323 29.4132 3.70105 26.7837 3.70105 23.9857C3.70105 21.1967 4.23402 18.5739 5.29995 16.1174C6.36588 13.6609 7.82113 11.5103 9.6657 9.66574C11.5103 7.82117 13.6632 6.36392 16.1245 5.29399C18.5858 4.22405 21.2157 3.68909 24.0142 3.68909C26.8033 3.68909 29.4261 4.22405 31.8826 5.29399C34.3391 6.36392 36.4896 7.82117 38.3342 9.66574C40.1788 11.5103 41.636 13.6617 42.706 16.12C43.7759 18.5782 44.3109 21.1994 44.3109 23.9836C44.3109 26.7677 43.7759 29.3944 42.706 31.8636C41.636 34.3328 40.1788 36.4897 38.3342 38.3342C36.4896 40.1788 34.3382 41.6341 31.8799 42.7C29.4217 43.7659 26.8005 44.2989 24.0163 44.2989ZM24 40.8924C25.8094 40.8924 27.5692 40.6337 29.2793 40.1163C30.9894 39.5989 32.6945 38.6855 34.3945 37.3761C32.6865 36.1841 30.9731 35.2813 29.2543 34.6679C27.5355 34.0545 25.784 33.7478 24 33.7478C22.2159 33.7478 20.4664 34.0545 18.7516 34.6679C17.0367 35.2813 15.3253 36.1841 13.6173 37.3761C15.3173 38.6855 17.0204 39.5989 18.7266 40.1163C20.4327 40.6337 22.1905 40.8924 24 40.8924ZM24 22.4402C25.1083 22.4402 26.0151 22.0898 26.7204 21.3891C27.4256 20.6884 27.7782 19.7813 27.7782 18.6679C27.7782 17.5545 27.4256 16.6455 26.7204 15.9407C26.0151 15.236 25.1083 14.8837 24 14.8837C22.8916 14.8837 21.9848 15.236 21.2796 15.9407C20.5743 16.6455 20.2217 17.5545 20.2217 18.6679C20.2217 19.7813 20.5743 20.6884 21.2796 21.3891C21.9848 22.0898 22.8916 22.4402 24 22.4402Z" fill="black"/>
</svg>
