<svg width="48" height="48" viewBox="0 0 48 48" fill="none" xmlns="http://www.w3.org/2000/svg">
<path d="M24.012 42.1315C18.9402 42.1315 14.6484 40.3775 11.1364 36.8696C7.6245 33.3616 5.86853 29.0718 5.86853 24C5.86853 19.5957 7.12776 15.8288 9.64623 12.6995C12.1647 9.57014 15.554 7.49569 19.8141 6.47612C20.5526 6.27756 21.181 6.23697 21.6995 6.35437C22.2179 6.47177 22.6304 6.71381 22.937 7.08047C23.2435 7.42177 23.4084 7.85437 23.4315 8.37827C23.4547 8.90221 23.3449 9.52541 23.1022 10.2479C22.8819 10.9906 22.7024 11.7321 22.5636 12.4723C22.4249 13.2125 22.3555 13.9594 22.3555 14.7131C22.3555 17.7529 23.4214 20.3388 25.5533 22.4707C27.6852 24.6026 30.275 25.6685 33.3229 25.6685C34.0844 25.6685 34.829 25.6134 35.5565 25.5033C36.2841 25.3931 36.9986 25.2366 37.7 25.0337C38.4812 24.7989 39.1484 24.7121 39.7017 24.7734C40.2549 24.8346 40.6982 25.0185 41.0315 25.325C41.3569 25.6316 41.5616 26.0547 41.6457 26.5946C41.7297 27.1344 41.6725 27.7863 41.4739 28.55C40.4544 32.4877 38.3939 35.7357 35.2924 38.2941C32.191 40.8524 28.4308 42.1315 24.012 42.1315Z" fill="black"/>
</svg>
