<svg width="48" height="48" viewBox="0 0 48 48" fill="none" xmlns="http://www.w3.org/2000/svg">
<path d="M24.1775 35.65C24.7258 35.65 25.1953 35.4542 25.5859 35.0627C25.9765 34.6712 26.1718 34.1987 26.1718 33.6452C26.1718 33.0918 25.976 32.6224 25.5845 32.2369C25.193 31.8514 24.721 31.6587 24.1687 31.6587C23.6164 31.6587 23.1469 31.8516 22.7603 32.2373C22.3737 32.6231 22.1805 33.0953 22.1805 33.654C22.1805 34.2035 22.3747 34.6735 22.7633 35.0641C23.1519 35.4547 23.6233 35.65 24.1775 35.65ZM24.015 44.2989C21.2082 44.2989 18.5742 43.7676 16.1129 42.705C13.6516 41.6424 11.499 40.189 9.65496 38.345C7.81096 36.501 6.35764 34.3477 5.29501 31.885C4.23241 29.4223 3.70111 26.7862 3.70111 23.9766C3.70111 21.1671 4.23241 18.5304 5.29501 16.0666C6.35764 13.6028 7.81033 11.4571 9.65306 9.62929C11.4958 7.80155 13.6488 6.35459 16.1121 5.28839C18.5754 4.22219 21.2122 3.68909 24.0224 3.68909C26.8326 3.68909 29.4701 4.22189 31.9348 5.28749C34.3995 6.35305 36.5455 7.79919 38.3726 9.62589C40.1998 11.4526 41.6463 13.6006 42.7121 16.07C43.778 18.5395 44.3109 21.1784 44.3109 23.9867C44.3109 26.7945 43.7778 29.429 42.7116 31.8902C41.6454 34.3514 40.1984 36.5004 38.3707 38.3373C36.5429 40.1742 34.3951 41.627 31.9271 42.6957C29.4591 43.7645 26.8217 44.2989 24.015 44.2989ZM24.1148 15.1913C25.074 15.1913 25.9191 15.4874 26.6502 16.0796C27.3812 16.6718 27.7468 17.4236 27.7468 18.335C27.7468 19.1807 27.4959 19.9188 26.9943 20.5493C26.4926 21.1798 25.9253 21.7648 25.2924 22.3043C24.5257 22.9456 23.8571 23.6588 23.2864 24.4438C22.7158 25.2288 22.4305 26.1069 22.4305 27.0782C22.4305 27.4652 22.5788 27.7739 22.8756 28.0043C23.1723 28.2348 23.5185 28.35 23.9142 28.35C24.3381 28.35 24.6912 28.2087 24.9737 27.9261C25.2561 27.6435 25.4468 27.2942 25.5457 26.8782C25.6536 26.2022 25.9141 25.5906 26.3272 25.0436C26.7402 24.4966 27.2263 24.0016 27.7855 23.5586C28.6031 22.8927 29.2746 22.1053 29.8 21.1964C30.3254 20.2875 30.5881 19.3121 30.5881 18.27C30.5881 16.5806 29.967 15.1676 28.725 14.031C27.483 12.8944 26.0098 12.3261 24.3054 12.3261C23.0904 12.3261 21.9278 12.5821 20.8176 13.094C19.7073 13.606 18.7902 14.3532 18.0663 15.3358C17.825 15.6851 17.7144 16.0633 17.7346 16.4703C17.7547 16.8773 17.9268 17.2057 18.2507 17.4554C18.6551 17.7301 19.0751 17.8154 19.5107 17.7114C19.9463 17.6074 20.3079 17.3641 20.5957 16.9815C21.0047 16.4166 21.5177 15.977 22.1347 15.6627C22.7516 15.3484 23.4116 15.1913 24.1148 15.1913Z" fill="black"/>
</svg>
