<svg width="48" height="48" viewBox="0 0 48 48" fill="none" xmlns="http://www.w3.org/2000/svg">
<path d="M9.10761 42.2989C8.18764 42.2989 7.38989 41.9611 6.71436 41.2856C6.03886 40.6101 5.70111 39.8124 5.70111 38.8924V9.10759C5.70111 8.18435 6.03886 7.38381 6.71436 6.70594C7.38989 6.02804 8.18764 5.68909 9.10761 5.68909H22.3185C22.7993 5.68909 23.2033 5.85595 23.5307 6.18969C23.8581 6.52342 24.0218 6.93157 24.0218 7.41414C24.0218 7.89674 23.8581 8.29964 23.5307 8.62284C23.2033 8.946 22.7993 9.10759 22.3185 9.10759H9.10761V38.8924H22.3185C22.7993 38.8924 23.2033 39.0569 23.5307 39.3859C23.8581 39.715 24.0218 40.1211 24.0218 40.6044C24.0218 41.0877 23.8581 41.4909 23.5307 41.8141C23.2033 42.1373 22.7993 42.2989 22.3185 42.2989H9.10761ZM35.7837 25.7032H19.6315C19.1507 25.7032 18.7467 25.5387 18.4193 25.2097C18.0919 24.8807 17.9283 24.4745 17.9283 23.9912C17.9283 23.5079 18.0919 23.1047 18.4193 22.7815C18.7467 22.4583 19.1507 22.2967 19.6315 22.2967H35.6837L31.837 18.45C31.4971 18.1085 31.3355 17.7082 31.3522 17.2493C31.3688 16.7903 31.5471 16.3929 31.887 16.057C32.2268 15.7132 32.6316 15.5433 33.1013 15.5472C33.571 15.5512 33.9785 15.7232 34.3239 16.063L41.1174 22.8565C41.4493 23.1993 41.6152 23.5978 41.6152 24.0521C41.6152 24.5065 41.4493 24.9036 41.1174 25.2435L34.3739 31.9869C34.0407 32.3268 33.6446 32.4904 33.1855 32.4777C32.7263 32.465 32.3203 32.2888 31.9674 31.9489C31.6406 31.6091 31.475 31.2034 31.4707 30.7319C31.4664 30.2605 31.6385 29.8538 31.987 29.5119L35.7837 25.7032Z" fill="black"/>
</svg>
