<svg width="48" height="48" viewBox="0 0 48 48" fill="none" xmlns="http://www.w3.org/2000/svg">
<path d="M20.6163 44.2989C20.1938 44.2989 19.821 44.1663 19.4978 43.9011C19.1746 43.6359 18.9797 43.292 18.9131 42.8695L18.125 37.9032C17.5395 37.6938 16.9147 37.3991 16.2506 37.019C15.5864 36.6389 15.0076 36.2482 14.5142 35.8467L9.94785 37.9728C9.54132 38.1554 9.12682 38.1804 8.70435 38.0478C8.28189 37.9152 7.9587 37.6417 7.7348 37.2272L4.3511 31.2098C4.1192 30.8286 4.05924 30.4308 4.1712 30.0163C4.28314 29.6018 4.50904 29.2619 4.8489 28.9967L9.07715 25.9065C9.01845 25.6304 8.98077 25.3127 8.9641 24.9532C8.94744 24.5938 8.9391 24.2761 8.9391 24C8.9391 23.7239 8.94744 23.4061 8.9641 23.0467C8.98077 22.6873 9.01845 22.3696 9.07715 22.0935L4.8489 19.0032C4.50907 18.738 4.28317 18.3982 4.1712 17.9837C4.05924 17.5692 4.1192 17.1714 4.3511 16.7902L7.7348 10.7848C7.9587 10.3783 8.28189 10.1067 8.70435 9.97009C9.12682 9.83349 9.54132 9.85649 9.94785 10.0391L14.5381 12.1532C15.0236 11.7598 15.5964 11.375 16.2565 10.9989C16.9167 10.6228 17.5395 10.3428 18.125 10.1587L18.9131 5.11849C18.9797 4.70399 19.1746 4.36214 19.4978 4.09294C19.821 3.8237 20.1938 3.68909 20.6163 3.68909H27.3837C27.8062 3.68909 28.179 3.8237 28.5022 4.09294C28.8254 4.36214 29.0203 4.70399 29.087 5.11849L29.875 10.1087C30.4605 10.3261 31.0917 10.6145 31.7685 10.9739C32.4453 11.3333 33.0178 11.7264 33.4859 12.1532L38.0522 10.0391C38.4587 9.85649 38.8732 9.83349 39.2957 9.97009C39.7181 10.1067 40.0413 10.3783 40.2652 10.7848L43.6609 16.7402C43.8848 17.1214 43.9491 17.5275 43.8538 17.9587C43.7585 18.3899 43.5203 18.738 43.1392 19.0032L38.9109 21.9935C38.9696 22.3029 39.0092 22.6373 39.0299 22.9967C39.0506 23.3561 39.0609 23.6906 39.0609 24C39.0609 24.3094 39.0506 24.6355 39.0299 24.9782C39.0092 25.321 38.9696 25.6471 38.9109 25.9565L43.1392 28.9967C43.487 29.2619 43.7169 29.6018 43.8288 30.0163C43.9408 30.4308 43.8848 30.8286 43.6609 31.2098L40.2533 37.2391C40.0294 37.6536 39.7082 37.9252 39.2897 38.0538C38.8712 38.1824 38.4587 38.1554 38.0522 37.9728L33.4739 35.8467C32.9804 36.2482 32.412 36.6453 31.7685 37.038C31.125 37.4308 30.4938 37.7192 29.875 37.9032L29.087 42.8695C29.0203 43.292 28.8254 43.6358 28.5022 43.901C28.179 44.1663 27.8062 44.2989 27.3837 44.2989H20.6163ZM23.9761 30.5C25.7761 30.5 27.3094 29.8667 28.5761 28.6C29.8428 27.3333 30.4761 25.8 30.4761 24C30.4761 22.2 29.8428 20.6667 28.5761 19.4C27.3094 18.1333 25.7761 17.5 23.9761 17.5C22.1761 17.5 20.6428 18.1333 19.3761 19.4C18.1094 20.6667 17.4761 22.2 17.4761 24C17.4761 25.8 18.1094 27.3333 19.3761 28.6C20.6428 29.8667 22.1761 30.5 23.9761 30.5Z" fill="black"/>
</svg>
